<?xml version="1.0" encoding="utf-8"?>
<!-- Generator: Adobe Illustrator 25.4.1, SVG Export Plug-In . SVG Version: 6.00 Build 0)  -->
<svg version="1.1" xmlns="http://www.w3.org/2000/svg" xmlns:xlink="http://www.w3.org/1999/xlink" x="0px" y="0px"
	 viewBox="0 0 500 500" style="enable-background:new 0 0 500 500;" xml:space="preserve">
<style type="text/css">
	.st0{fill:#E0E0E0;}
	.st1{fill:#F0F0F0;}
	.st2{display:none;}
	.st3{display:inline;fill:#407BFF;}
	.st4{display:inline;opacity:0.9;fill:#FFFFFF;}
	.st5{fill:#F5F5F5;}
	.st6{fill:#407BFF;}
	.st7{opacity:0.6;fill:#FFFFFF;}
	.st8{opacity:0.2;}
	.st9{opacity:0.4;}
	.st10{opacity:0.3;}
	.st11{opacity:0.5;fill:#FFFFFF;}
	.st12{fill:#E4897B;}
	.st13{fill:#263238;}
	.st14{fill:#DE5753;}
	.st15{opacity:0.6;}
	.st16{fill:#CE6F64;}
	.st17{opacity:0.1;}
	.st18{opacity:0.4;fill:#FFFFFF;}
	.st19{font-family:'SegoeUISymbol';}
	.st20{font-size:9px;}
</style>
<g id="Background_Complete">
	<g>
		<g>
			<g>
				<g>
					<rect y="382.4" class="st0" width="500" height="0.25"/>
					<rect x="343.26" y="392.99" class="st0" width="34.4" height="0.25"/>
					<rect x="91.68" y="393.11" class="st0" width="19.36" height="0.25"/>
					<rect x="211.76" y="392.53" class="st0" width="39.24" height="0.25"/>
					<rect x="193.22" y="388.97" class="st0" width="17.54" height="0.25"/>
					<rect x="371.57" y="389.1" class="st0" width="52.99" height="0.25"/>
					<path class="st0" d="M237.01,337.8H43.92c-3.15,0-5.71-2.56-5.71-5.71V60.66c0-3.15,2.56-5.71,5.71-5.71h193.1
						c3.15,0,5.71,2.56,5.71,5.71v271.43C242.72,335.24,240.16,337.8,237.01,337.8z M43.92,55.2c-3.01,0-5.46,2.45-5.46,5.46v271.43
						c0,3.01,2.45,5.46,5.46,5.46h193.1c3.01,0,5.46-2.45,5.46-5.46V60.66c0-3.01-2.45-5.46-5.46-5.46H43.92z"/>
					<path class="st0" d="M453.31,337.8h-193.1c-3.15,0-5.71-2.56-5.71-5.71V60.66c0-3.15,2.56-5.71,5.71-5.71h193.1
						c3.15,0,5.71,2.56,5.71,5.71v271.43C459.02,335.24,456.46,337.8,453.31,337.8z M260.21,55.2c-3.01,0-5.46,2.45-5.46,5.46
						v271.43c0,3.01,2.45,5.46,5.46,5.46h193.1c3.01,0,5.46-2.45,5.46-5.46V60.66c0-3.01-2.45-5.46-5.46-5.46H260.21z"/>
				</g>
			</g>
		</g>
		<g>
			<g>
				<path class="st0" d="M439.31,257.23c-12.31-18.73-1.07-38.86-2.94-59.69c-1.87-20.83-21.67-25.38-17.92-43.04
					c4.34-20.47-7.22-40.13-20.33-40.13c-13.11,0-24.68,19.66-20.33,40.13c3.75,17.66-16.05,22.21-17.92,43.04
					c-1.87,20.83,9.36,40.97-2.94,59.69c-12.31,18.73-9.08,43.53-2.14,55.84c1.91,3.39,4.16,6.39,6.61,9.05
					c19.68,21.31,53.77,21.31,73.45,0c2.45-2.66,4.7-5.66,6.61-9.05C448.39,300.76,451.62,275.95,439.31,257.23z"/>
				<path class="st1" d="M404.33,382.4h-12.44V277.66c0-3.42,2.8-6.22,6.22-6.22h0c3.42,0,6.22,2.8,6.22,6.22V382.4z"/>
			</g>
			<g>
				<path class="st0" d="M319.91,382.4h-16.94V277.67c0-4.66,3.81-8.47,8.47-8.47l0,0c4.66,0,8.47,3.81,8.47,8.47V382.4z"/>
				<circle class="st1" cx="311.44" cy="301.98" r="52.17"/>
				
					<ellipse transform="matrix(0.2411 -0.9705 0.9705 0.2411 -5.3395 555.9239)" class="st1" cx="352.79" cy="281.38" rx="20.56" ry="20.56"/>
				
					<ellipse transform="matrix(0.1608 -0.987 0.987 0.1608 -39.7411 491.6678)" class="st1" cx="269.25" cy="269.2" rx="12.17" ry="12.17"/>
				<circle class="st1" cx="282.48" cy="262.9" r="8.54"/>
			</g>
			<path class="st0" d="M203.97,319.89c-8.69,1.29-16.21,4.44-22.72,8.67c-0.06-7.91-1.51-15.43-5.23-21.5
				c-5.66,5.52-10.25,12.66-13.96,20.33c-1.39-14.43-5.18-28.42-13.57-37.25c-12.57,7.91-19.05,21.09-22.13,35.05
				c-5.01-8.95-11.92-17.2-21.46-23.2c-7.69,8.1-10.15,19.3-9.94,30.78c-8.74-10.17-18.44-18.12-27.9-19.05
				c-2.33,16.11,2.63,31.31,8.93,43.29c8.27,15.71,24.72,25.4,42.47,25.4h41.09c17.51,0,33.93-9.34,42.14-24.81
				C206.89,347.8,209.37,335.19,203.97,319.89z"/>
			<path class="st1" d="M192.26,112.14c5.08-14.87,1.05-25.46-11.36-25.46c-7.78,0-17.43,4.17-26.83,10.95
				c-1.06-3.87-4.05-6.19-8.86-6.19c-8.47,0-20.14,7.16-29.29,17.27c-2.22-2.25-5.42-3.63-9.54-3.85
				c-8.1-0.46-17.92,3.66-26.45,10.35c-0.74-1.12-2.01-1.82-3.76-1.93c-4.67-0.26-10.99,3.89-14.13,9.27
				c-0.2,0.34-0.37,0.66-0.54,0.99h9.7h7.72h26.8h13.19h10.26h15.8h2.87H187h7.72C195.12,118.86,194.29,114.94,192.26,112.14z"/>
			<path class="st1" d="M192.67,202.43c2.48-7.26,0.51-12.44-5.55-12.44c-3.8,0-8.52,2.04-13.11,5.35
				c-0.52-1.89-1.98-3.02-4.33-3.02c-4.14,0-9.84,3.5-14.31,8.43c-1.08-1.1-2.65-1.77-4.66-1.88c-3.96-0.22-8.75,1.79-12.92,5.06
				c-0.36-0.55-0.98-0.89-1.83-0.94c-2.28-0.13-5.37,1.9-6.9,4.53c-0.1,0.17-0.18,0.32-0.27,0.48h4.74h3.77h13.09h6.44h5.01h7.72
				h1.4h19.14h3.77C194.07,205.71,193.66,203.8,192.67,202.43z"/>
			<path class="st1" d="M342.77,147.49c-0.51-0.07-1.02-0.11-1.54-0.11c0.48-7.26-2.29-11.89-8.22-11.89
				c-4.27,0-9.52,2.42-14.87,6.51c1.53-14.08-3.37-23.24-14.46-23.24c-8.95,0-20.28,5.95-31.47,15.67
				c-0.98-5.53-4.28-8.84-9.82-8.84c-9.73,0-23.56,10.23-34.65,24.67c0,0,0,0.02-0.01,0c-2.4-3.22-5.99-5.21-10.73-5.53
				c-9.27-0.65-20.77,5.23-30.97,14.81c-0.78-1.62-2.19-2.62-4.21-2.75c-5.07-0.35-12.05,4.93-16.11,12h11.82h8.01h30.82h14.43
				h12.85h18.25h34.49h13.44h4.78h19.13h17.17C355.27,158.08,351.81,148.7,342.77,147.49z"/>
		</g>
	</g>
</g>
<g id="Background_Simple" class="st2">
	<path class="st3" d="M141.5,158.12c-76.9,44.85-81.52,196.41,27.88,193.51c48.91-1.3,63.21-52.59,107.34-70.59
		c41.44-16.91,77.17,17.02,119.05-21.4c49.29-45.2,56.37-155.75-16.9-163.14c-31.9-3.22-44.2,28.63-72.07,35.68
		C250.26,146.48,198.64,124.79,141.5,158.12z"/>
	<path class="st4" d="M141.5,158.12c-76.9,44.85-81.52,196.41,27.88,193.51c48.91-1.3,63.21-52.59,107.34-70.59
		c41.44-16.91,77.17,17.02,119.05-21.4c49.29-45.2,56.37-155.75-16.9-163.14c-31.9-3.22-44.2,28.63-72.07,35.68
		C250.26,146.48,198.64,124.79,141.5,158.12z"/>
</g>
<g id="Shadow">
	<ellipse class="st5" cx="250" cy="416.24" rx="193.89" ry="11.32"/>
</g>
<g id="Mail">
	<g>
		<g>
			<g>
				<polygon class="st6" points="48.86,150.56 276.83,183.38 307.42,214.25 				"/>
				<polygon class="st7" points="48.86,150.56 276.83,183.38 307.42,214.25 				"/>
			</g>
			<g>
				<polygon class="st6" points="48.86,150.56 276.83,183.38 266.25,228.02 				"/>
				<polygon class="st8" points="48.86,150.56 276.83,183.38 266.25,228.02 				"/>
			</g>
			<g>
				<g>
					<path class="st6" d="M261.57,98.88l13.24,62.03c0.72,3.36-1.45,6.69-4.8,7.41l-118.08,25.2c-3.36,0.72-6.69-1.45-7.41-4.8
						l-13.24-62.03c-0.37-1.76,0.04-3.51,1-4.88c0.88-1.25,2.21-2.18,3.81-2.53l118.08-25.2c1.6-0.34,3.2-0.03,4.51,0.75
						C260.1,95.69,261.19,97.12,261.57,98.88z"/>
					<path class="st9" d="M261.57,98.88l13.24,62.03c0.72,3.36-1.45,6.69-4.8,7.41l-118.08,25.2c-3.36,0.72-6.69-1.45-7.41-4.8
						l-13.24-62.03c-0.37-1.76,0.04-3.51,1-4.88c0.88-1.25,2.21-2.18,3.81-2.53l118.08-25.2c1.6-0.34,3.2-0.03,4.51,0.75
						C260.1,95.69,261.19,97.12,261.57,98.88z"/>
				</g>
				<path class="st6" d="M258.66,94.82l-39.46,48.43c-7.54,9.25-20.49,12.01-31.15,6.65l-55.79-28.11c0.88-1.25,2.21-2.18,3.81-2.53
					l118.08-25.2C255.76,93.73,257.35,94.04,258.66,94.82z"/>
			</g>
			<g>
				<polygon class="st6" points="48.86,150.56 236.89,195.25 266.25,228.02 				"/>
				<polygon class="st7" points="48.86,150.56 236.89,195.25 266.25,228.02 				"/>
			</g>
			
				<rect x="127.15" y="188.08" transform="matrix(0.5055 -0.8628 0.8628 0.5055 -109.6119 209.1521)" class="st6" width="1" height="24.25"/>
			
				<rect x="150.62" y="209.59" transform="matrix(0.5055 -0.8628 0.8628 0.5055 -109.8692 236.1929)" class="st6" width="1" height="8.72"/>
			<polygon class="st6" points="48.86,150.56 236.89,195.25 200.34,239.3 			"/>
		</g>
		<g>
			<g>
				<path class="st6" d="M300.36,255.26c-0.24,0-0.49-0.05-0.74-0.14l-30.63-12.13c-1.03-0.41-1.53-1.57-1.12-2.6
					c0.41-1.03,1.56-1.53,2.6-1.12l30.63,12.13c1.03,0.41,1.53,1.57,1.12,2.6C301.91,254.78,301.16,255.26,300.36,255.26z"/>
				<path class="st10" d="M300.36,255.26c-0.24,0-0.49-0.05-0.74-0.14l-30.63-12.13c-1.03-0.41-1.53-1.57-1.12-2.6
					c0.41-1.03,1.56-1.53,2.6-1.12l30.63,12.13c1.03,0.41,1.53,1.57,1.12,2.6C301.91,254.78,301.16,255.26,300.36,255.26z"/>
			</g>
			<g>
				<path class="st6" d="M298.55,237.7c-0.24,0-0.49-0.05-0.74-0.14l-16.45-6.51c-1.03-0.41-1.53-1.57-1.12-2.6
					c0.41-1.03,1.56-1.53,2.6-1.12l16.45,6.51c1.03,0.41,1.53,1.57,1.12,2.6C300.1,237.22,299.35,237.7,298.55,237.7z"/>
				<path class="st11" d="M298.55,237.7c-0.24,0-0.49-0.05-0.74-0.14l-16.45-6.51c-1.03-0.41-1.53-1.57-1.12-2.6
					c0.41-1.03,1.56-1.53,2.6-1.12l16.45,6.51c1.03,0.41,1.53,1.57,1.12,2.6C300.1,237.22,299.35,237.7,298.55,237.7z"/>
			</g>
			<g>
				<path class="st6" d="M264.16,254.96c-0.24,0-0.49-0.05-0.74-0.14l-29.87-11.83c-1.03-0.41-1.53-1.57-1.12-2.6
					c0.41-1.03,1.57-1.53,2.6-1.12l29.87,11.83c1.03,0.41,1.53,1.57,1.12,2.6C265.71,254.48,264.96,254.96,264.16,254.96z"/>
				<path class="st10" d="M264.16,254.96c-0.24,0-0.49-0.05-0.74-0.14l-29.87-11.83c-1.03-0.41-1.53-1.57-1.12-2.6
					c0.41-1.03,1.57-1.53,2.6-1.12l29.87,11.83c1.03,0.41,1.53,1.57,1.12,2.6C265.71,254.48,264.96,254.96,264.16,254.96z"/>
			</g>
		</g>
	</g>
</g>
<g id="Character">
	<g>
		<path class="st12" d="M372.3,164.82c2.65,5.17,5.08,10.35,7.39,15.65c2.29,5.3,4.47,10.67,6.34,16.29l0.68,2.13
			c0.11,0.38,0.29,1,0.39,1.44c0.09,0.46,0.19,0.94,0.25,1.36c0.26,1.74,0.31,3.32,0.34,4.86c0.05,3.08-0.16,6.02-0.42,8.95
			c-0.56,5.84-1.47,11.52-2.72,17.22l-5.48-0.61c-0.07-5.63-0.12-11.32-0.32-16.87c-0.1-2.77-0.26-5.53-0.54-8.14
			c-0.14-1.29-0.35-2.56-0.59-3.62c-0.06-0.28-0.13-0.5-0.2-0.73c-0.08-0.25-0.11-0.31-0.22-0.6l-0.75-1.89
			c-2.09-5.06-4.44-10.16-6.84-15.24l-7.26-15.23L372.3,164.82z"/>
		<path class="st12" d="M379.14,230.42l-2.56,4.79l8.18,2.28c0,0,1.56-3.85-0.3-6.89L379.14,230.42z"/>
		<polygon class="st12" points="373.45,242.11 380.97,242.7 384.76,237.49 376.58,235.21 		"/>
		<path class="st13" d="M337.87,130.26c-0.12,0.58-0.52,0.99-0.9,0.91c-0.38-0.08-0.59-0.61-0.47-1.19c0.12-0.58,0.52-0.99,0.9-0.91
			C337.78,129.15,337.99,129.68,337.87,130.26z"/>
		<path class="st14" d="M337.41,131.26c0,0-2,3.08-3.78,4.4c0.83,1.17,2.67,1.08,2.67,1.08L337.41,131.26z"/>
		<path class="st13" d="M340.65,127.47c-0.09,0-0.19-0.04-0.26-0.11c-1.04-1.13-2.28-0.94-2.33-0.94c-0.18,0.03-0.37-0.1-0.4-0.29
			c-0.03-0.19,0.1-0.37,0.28-0.4c0.07-0.01,1.65-0.26,2.96,1.15c0.13,0.14,0.12,0.36-0.02,0.49
			C340.82,127.44,340.74,127.47,340.65,127.47z"/>
		<path class="st12" d="M354.41,138.43c-1.05,5.37-2.11,15.22,1.65,18.81c0,0-1.47,5.45-11.46,5.45c-10.98,0-5.25-5.45-5.25-5.45
			c5.99-1.43,5.84-5.88,4.79-10.05L354.41,138.43z"/>
		<path class="st13" d="M357.58,160.63c0.79-2.63,1.67-5.65-0.14-6.59c-1.99-1.04-12.86-2.1-16.61-0.15
			c-3.75,1.95-2.69,7.29-2.69,7.29L357.58,160.63z"/>
		<path class="st6" d="M380.64,410.02c-0.75,0-1.48-0.12-1.76-0.49c-0.12-0.16-0.21-0.42,0.01-0.83c0.12-0.21,0.3-0.35,0.55-0.41
			c1.08-0.25,3.1,1.14,3.19,1.2c0.06,0.04,0.08,0.11,0.07,0.18c-0.01,0.07-0.06,0.12-0.13,0.14
			C382.18,409.9,381.4,410.02,380.64,410.02z M379.72,408.62c-0.08,0-0.15,0.01-0.21,0.02c-0.15,0.04-0.25,0.11-0.32,0.23
			c-0.16,0.29-0.06,0.41-0.03,0.45c0.31,0.41,1.82,0.42,2.91,0.23C381.43,409.17,380.39,408.62,379.72,408.62z"/>
		<path class="st6" d="M382.52,409.82c-0.03,0-0.06-0.01-0.08-0.02c-0.76-0.41-2.23-2.02-2.08-2.84c0.03-0.15,0.14-0.41,0.55-0.46
			c0.26-0.03,0.52,0.04,0.74,0.22c0.85,0.7,1.03,2.82,1.04,2.91c0,0.06-0.03,0.12-0.08,0.16
			C382.59,409.81,382.55,409.82,382.52,409.82z M381.04,406.84c-0.03,0-0.05,0-0.08,0c-0.23,0.03-0.25,0.13-0.25,0.18
			c-0.09,0.49,0.84,1.7,1.6,2.27c-0.09-0.62-0.32-1.85-0.87-2.3C381.31,406.89,381.18,406.84,381.04,406.84z"/>
		<path class="st6" d="M336.53,410.02c-0.94,0-1.85-0.13-2.16-0.55c-0.11-0.15-0.19-0.4,0.01-0.76c0.12-0.2,0.3-0.34,0.55-0.41
			c1.22-0.33,3.79,1.13,3.9,1.19c0.06,0.04,0.1,0.11,0.09,0.18c-0.01,0.07-0.07,0.13-0.14,0.14
			C338.31,409.91,337.41,410.02,336.53,410.02z M335.36,408.6c-0.12,0-0.24,0.01-0.34,0.04c-0.16,0.04-0.27,0.12-0.34,0.24
			c-0.12,0.22-0.08,0.32-0.03,0.38c0.33,0.46,2.19,0.48,3.56,0.29C337.54,409.21,336.22,408.6,335.36,408.6z"/>
		<path class="st6" d="M338.75,409.82c-0.02,0-0.05,0-0.07-0.01c-0.89-0.4-2.64-1.99-2.51-2.82c0.03-0.2,0.17-0.44,0.65-0.49
			c0.36-0.03,0.68,0.06,0.96,0.3c0.93,0.77,1.13,2.75,1.14,2.83c0.01,0.06-0.02,0.12-0.07,0.16
			C338.82,409.81,338.79,409.82,338.75,409.82z M336.96,406.84c-0.03,0-0.07,0-0.1,0c-0.31,0.03-0.33,0.16-0.34,0.2
			c-0.08,0.5,1.11,1.75,2.02,2.29c-0.09-0.58-0.36-1.76-0.97-2.27C337.38,406.91,337.18,406.84,336.96,406.84z"/>
		<polygon class="st12" points="346.83,409.64 339.48,409.64 338.75,392.63 346.1,392.63 		"/>
		<polygon class="st12" points="390.94,409.64 383.59,409.64 379.9,392.63 387.24,392.63 		"/>
		<path class="st13" d="M383.07,408.79h8.25c0.3,0,0.56,0.21,0.63,0.5l1.45,6.53c0.15,0.68-0.38,1.32-1.08,1.31
			c-2.88-0.05-4.28-0.22-7.91-0.22c-2.23,0-6.83,0.23-9.92,0.23c-3.02,0-3.49-3.05-2.22-3.33c5.66-1.24,7.79-2.95,9.6-4.57
			C382.2,408.95,382.63,408.79,383.07,408.79z"/>
		<path class="st13" d="M339.53,408.79h8.02c0.3,0,0.56,0.21,0.63,0.5l1.45,6.53c0.15,0.68-0.36,1.32-1.06,1.31
			c-2.89-0.05-7.08-0.22-10.71-0.22c-4.25,0-7.93,0.23-12.91,0.23c-3.02,0-3.85-3.05-2.59-3.33c5.75-1.26,10.44-1.39,15.41-4.45
			C338.3,409.03,338.9,408.79,339.53,408.79z"/>
		<path class="st12" d="M335.98,170.14c-6.23-0.49-12.22-1.29-18.31-2.43c-3.03-0.58-6.07-1.23-9.1-2.05
			c-3.04-0.81-6.09-1.74-9.16-3.02c-0.77-0.32-1.55-0.67-2.32-1.04c-0.97-0.48-1.78-0.98-2.49-1.45c-1.44-0.95-2.68-1.94-3.91-2.92
			c-2.45-1.96-4.72-4-6.97-6.05c-4.47-4.14-8.71-8.42-12.8-12.92l3.68-4.11l14.51,10.43c2.39,1.73,4.81,3.41,7.19,5
			c1.18,0.79,2.4,1.53,3.5,2.16c0.56,0.32,1.06,0.55,1.44,0.71c0.59,0.23,1.2,0.46,1.83,0.67c5.08,1.69,10.82,2.78,16.53,3.7
			c5.71,0.9,11.61,1.65,17.31,2.24L335.98,170.14z"/>
		<g>
			<path class="st6" d="M369.22,158.9c6.89,1.58,13.85,21.71,13.85,21.71l-14.17,10.17c0,0-3.96-9.38-7.85-17.58
				C356.96,164.61,362.18,157.29,369.22,158.9z"/>
			<path class="st9" d="M369.22,158.9c6.89,1.58,13.85,21.71,13.85,21.71l-14.17,10.17c0,0-3.96-9.38-7.85-17.58
				C356.96,164.61,362.18,157.29,369.22,158.9z"/>
		</g>
		<g>
			<path class="st6" d="M365.25,169.9l-2.81,6.29c2.91,6.28,5.57,12.5,6.28,14.16C368.62,182.92,367.21,173.7,365.25,169.9z"/>
			<path class="st15" d="M365.25,169.9l-2.81,6.29c2.91,6.28,5.57,12.5,6.28,14.16C368.62,182.92,367.21,173.7,365.25,169.9z"/>
		</g>
		<g>
			<path class="st6" d="M328.07,159.28c0,0-7.82,8.83-0.43,63.5c11.84,0,33.53,0,39.29,0c0.27-6.03-3.52-35.46,2.3-63.88
				c0,0-6.74-1.35-13.15-1.66c-5.02-0.24-12.29-0.4-16.7,0C333.55,157.77,328.07,159.28,328.07,159.28z"/>
			<path class="st9" d="M328.07,159.28c0,0-7.82,8.83-0.43,63.5c11.84,0,33.53,0,39.29,0c0.27-6.03-3.52-35.46,2.3-63.88
				c0,0-6.74-1.35-13.15-1.66c-5.02-0.24-12.29-0.4-16.7,0C333.55,157.77,328.07,159.28,328.07,159.28z"/>
		</g>
		<g>
			<path class="st6" d="M325.16,169.9c-0.26,2.07-0.46,4.52-0.59,7.41c3.25-1.01,7.29-2.63,10.94-5.14L325.16,169.9z"/>
			<path class="st15" d="M325.16,169.9c-0.26,2.07-0.46,4.52-0.59,7.41c3.25-1.01,7.29-2.63,10.94-5.14L325.16,169.9z"/>
		</g>
		<g>
			<path class="st6" d="M341.97,170.97c-5.26,4.66-25.34,4.19-25.34,4.19l-0.66-19.41c0,0,11.38,1.67,20.47,1.48
				C347.66,157.01,347.74,165.86,341.97,170.97z"/>
			<path class="st9" d="M341.97,170.97c-5.26,4.66-25.34,4.19-25.34,4.19l-0.66-19.41c0,0,11.38,1.67,20.47,1.48
				C347.66,157.01,347.74,165.86,341.97,170.97z"/>
		</g>
		<path class="st12" d="M274.77,134.24l-5.04-5.89l-5.38,5.96c0,0,3.31,5.58,8.59,4.7L274.77,134.24z"/>
		<polygon class="st12" points="262.61,121.48 260.67,129.17 264.34,134.31 269.73,128.35 		"/>
		<g>
			<polygon class="st16" points="338.75,392.64 339.13,401.41 346.48,401.41 346.1,392.64 			"/>
			<polygon class="st16" points="387.25,392.64 379.9,392.64 381.8,401.41 389.15,401.41 			"/>
		</g>
		<path class="st13" d="M343.17,122.96c-6.59-3.05-8.67-16.34,10.28-13.05c0,0-2.86,3.17,2.95,5.17
			C362.21,117.08,357.35,129.51,343.17,122.96z"/>
		<path class="st12" d="M357.49,132.97c-1.89,7.04-2.63,11.26-6.98,14.19c-6.54,4.4-14.68-0.65-14.93-8.11
			c-0.23-6.72,2.9-17.11,10.45-18.53C353.48,119.12,359.38,125.93,357.49,132.97z"/>
		<path class="st13" d="M353.2,113.5c4.49,2.51,10.57,4.01,9.96,7.56c-0.75,4.35,3.68,1.63,2.65,8.11
			c-0.67,4.23-8.48,17.05-13.97,16.42c-8.26-0.94-7.21-13.55-7.24-20.18C344.58,121.5,344.4,108.57,353.2,113.5z"/>
		<path class="st13" d="M343.61,119.11c-2,0.47-4.65,12,3.1,13.06C355.62,133.38,343.61,119.11,343.61,119.11z"/>
		<path class="st13" d="M343.81,123.2c-2.45,0.22-7.98-2.73-7.32-7.17C336.49,116.03,340.02,121.22,343.81,123.2z"/>
		<path class="st12" d="M347.45,133.09c-0.77,1.75-2.22,3.12-3.62,3.86c-2.11,1.1-3.3-0.51-2.82-2.62c0.43-1.9,2.05-4.77,4.22-5
			C347.36,129.09,348.32,131.09,347.45,133.09z"/>
		<path class="st13" d="M358.45,124.95c1.48-0.76,4.86-2.47,5.79-7.32C364.23,117.62,367.53,126.84,358.45,124.95z"/>
		<path class="st13" d="M366.79,124.85c-0.74-0.43-2.42-1.42-4.79-0.47C362.01,124.38,365.09,120.39,366.79,124.85z"/>
		<g>
			<path class="st6" d="M341.57,222.78c0,0,8.34,56.14,12.91,77.18c5.01,23.03,23.89,99.76,23.89,99.76h13.46
				c0,0-12.45-74.86-15.31-97.67c-3.1-24.75-9.6-79.26-9.6-79.26H341.57z"/>
			<path class="st11" d="M341.57,222.78c0,0,8.34,56.14,12.91,77.18c5.01,23.03,23.89,99.76,23.89,99.76h13.46
				c0,0-12.45-74.86-15.31-97.67c-3.1-24.75-9.6-79.26-9.6-79.26H341.57z"/>
		</g>
		<g>
			<path class="st6" d="M376.23,394.75c-0.06,0,1.39,5.17,1.39,5.17h15.14l-0.28-4.61L376.23,394.75z"/>
			<path class="st17" d="M376.23,394.75c-0.06,0,1.39,5.17,1.39,5.17h15.14l-0.28-4.61L376.23,394.75z"/>
		</g>
		<g>
			<path class="st6" d="M346.84,242.78c9.64,1.89,8.62,37.84,7.46,56.33c-2.78-13.07-6.85-38.22-9.63-56.07
				C345.31,242.72,346.03,242.62,346.84,242.78z"/>
			<path class="st18" d="M346.84,242.78c9.64,1.89,8.62,37.84,7.46,56.33c-2.78-13.07-6.85-38.22-9.63-56.07
				C345.31,242.72,346.03,242.62,346.84,242.78z"/>
		</g>
		<g>
			<path class="st6" d="M327.63,222.78c0,0-1.01,54.93-0.21,77.33c0.83,23.3,8.97,99.6,8.97,99.6h12.44c0,0,0.46-74.94,1.01-97.82
				c0.6-24.95,3.62-79.11,3.62-79.11H327.63z"/>
			<path class="st11" d="M327.63,222.78c0,0-1.01,54.93-0.21,77.33c0.83,23.3,8.97,99.6,8.97,99.6h12.44c0,0,0.46-74.94,1.01-97.82
				c0.6-24.95,3.62-79.11,3.62-79.11H327.63z"/>
		</g>
		<g>
			<path class="st6" d="M338.98,390.77c-0.06,0-0.12-0.05-0.12-0.11c-2.19-21.12-7.37-72.21-8.02-90.54
				c-0.67-18.71-0.06-60.69,0.14-73.11c0-0.07,0.06-0.12,0.12-0.12c0,0,0,0,0,0c0.07,0,0.12,0.06,0.12,0.13
				c-0.2,12.42-0.81,54.39-0.14,73.1c0.65,18.32,5.83,69.41,8.02,90.53c0.01,0.07-0.04,0.13-0.11,0.14
				C338.99,390.77,338.99,390.77,338.98,390.77z"/>
			<path class="st18" d="M338.98,390.77c-0.06,0-0.12-0.05-0.12-0.11c-2.19-21.12-7.37-72.21-8.02-90.54
				c-0.67-18.71-0.06-60.69,0.14-73.11c0-0.07,0.06-0.12,0.12-0.12c0,0,0,0,0,0c0.07,0,0.12,0.06,0.12,0.13
				c-0.2,12.42-0.81,54.39-0.14,73.1c0.65,18.32,5.83,69.41,8.02,90.53c0.01,0.07-0.04,0.13-0.11,0.14
				C338.99,390.77,338.99,390.77,338.98,390.77z"/>
		</g>
		<g>
			<path class="st6" d="M333.99,394.75c-0.06,0,0.7,5.17,0.7,5.17h15.14l0.41-4.61L333.99,394.75z"/>
			<path class="st17" d="M333.99,394.75c-0.06,0,0.7,5.17,0.7,5.17h15.14l0.41-4.61L333.99,394.75z"/>
		</g>
	</g>
	<text transform="matrix(0.9816 -0.1908 0.1908 0.9816 162.1867 172.7958)" class="st11 st19 st20">ramprasath@gmail.com</text>
</g>
</svg>
