<?xml version="1.0" encoding="utf-8"?>
<!-- Generator: Adobe Illustrator 25.4.1, SVG Export Plug-In . SVG Version: 6.00 Build 0)  -->
<svg version="1.1" id="Layer_1" xmlns="http://www.w3.org/2000/svg" xmlns:xlink="http://www.w3.org/1999/xlink" x="0px" y="0px"
	 viewBox="0 0 200 200" style="enable-background:new 0 0 200 200;" xml:space="preserve">
<style type="text/css">
	.st0{fill:#FFFFFF;}
</style>
<symbol  id="New_Symbol_3" viewBox="-30.8 -30.8 61.6 61.6">
	<path class="st0" d="M-15.2-30.8h-2.6c-3.6,0-6.7,1.3-9.2,3.8c-2.5,2.5-3.8,5.6-3.8,9.2v35.7c0,3.6,1.2,6.7,3.8,9.2
		c2.5,2.5,5.6,3.8,9.2,3.8h2.6c1.2,0,2.2-0.4,2.9-1.1c0.7-0.8,1.1-1.7,1.1-2.9s-0.4-2.2-1.1-2.9c-0.7-0.7-1.7-1.1-2.9-1.1h-2.6
		c-1.4,0-2.5-0.5-3.5-1.4c-0.9-0.9-1.4-2.1-1.4-3.5v-35.7c0-1.4,0.5-2.5,1.4-3.4c0.9-0.9,2.1-1.4,3.5-1.4h2.6c1.2,0,2.2-0.4,2.9-1.1
		c0.7-0.8,1.1-1.7,1.1-2.9c0-1.2-0.4-2.2-1.1-2.9C-13-30.4-14-30.8-15.2-30.8z"/>
	<path class="st0" d="M12.3-29.7c-0.8,0.7-1.1,1.7-1.1,2.9c0,1.2,0.4,2.2,1.1,2.9c0.8,0.8,1.7,1.1,2.9,1.1h2.6
		c1.4,0,2.5,0.5,3.5,1.4c0.9,0.9,1.4,2.1,1.4,3.4v35.7c0,1.3-0.5,2.5-1.4,3.4s-2.1,1.4-3.4,1.4h-2.6c-1.2,0-2.2,0.4-2.9,1.1
		c-0.8,0.7-1.1,1.7-1.1,2.9s0.4,2.2,1.1,2.9c0.8,0.8,1.7,1.1,2.9,1.1h2.6c3.6,0,6.7-1.3,9.2-3.8s3.8-5.6,3.8-9.2v-35.7
		c0-3.6-1.3-6.7-3.8-9.2c-2.5-2.5-5.6-3.8-9.2-3.8h-2.6C14-30.8,13-30.4,12.3-29.7z"/>
	<path class="st0" d="M29.7,12.3c-0.7-0.8-1.7-1.1-2.9-1.1c-1.2,0-2.2,0.4-2.9,1.1c-0.8,0.8-1.1,1.7-1.1,2.9v2.6
		c0,1.4-0.5,2.5-1.4,3.5c-0.9,0.9-2.1,1.4-3.4,1.4h-35.7c-1.3,0-2.5-0.5-3.4-1.4s-1.4-2.1-1.4-3.4v-2.6c0-1.2-0.4-2.2-1.1-2.9
		c-0.7-0.8-1.7-1.1-2.9-1.1s-2.2,0.4-2.9,1.1c-0.8,0.8-1.1,1.7-1.1,2.9v2.6c0,3.6,1.3,6.7,3.8,9.2s5.6,3.8,9.2,3.8h35.7
		c3.6,0,6.7-1.3,9.2-3.8c2.5-2.5,3.8-5.6,3.8-9.2v-2.6C30.8,14,30.4,13,29.7,12.3z"/>
</symbol>
<symbol  id="New_Symbol_5" viewBox="-98.2 -21.5 196.5 43">
	<path class="st0" d="M-82.9,1.1c-2,0-3.7-0.7-5.1-2.1c-1.4-1.4-2.1-3.1-2.1-5.1c0-2,0.7-3.7,2.1-5.1c1.4-1.4,3.1-2.1,5.1-2.1
		c2,0,3.7,0.7,5.1,2.1c1.4,1.4,2.1,3.1,2.1,5.1v23.6c0,1.2,0.4,2.1,1.1,2.9c0.8,0.8,1.7,1.1,2.9,1.1c1.2,0,2.2-0.4,2.9-1.1
		c0.8-0.7,1.1-1.7,1.1-2.9V-6.1c0-4.3-1.5-7.9-4.5-10.9c-3-3-6.6-4.4-10.9-4.4c-4.3,0-7.9,1.5-10.9,4.4c-3,3-4.4,6.6-4.4,10.8
		c0,4.3,1.5,7.9,4.4,10.9s6.6,4.4,10.9,4.4c1.2,0,2.2-0.4,2.9-1.1c0.8-0.8,1.1-1.7,1.1-2.9S-79.2,3-80,2.2
		C-80.8,1.5-81.7,1.1-82.9,1.1z"/>
	<path class="st0" d="M-38.5-1.6l-7.7-7.5C-47-9.9-48-10.3-49-10.3c-1.1,0-2.1,0.4-2.9,1.2c-0.8,0.8-1.2,1.8-1.2,2.9
		c0,1,0.4,1.9,1.3,2.8l4.3,4.3c-0.5,0.1-1,0.2-1.6,0.2c-2,0-3.7-0.7-5.1-2.1c-1.4-1.4-2.1-3.1-2.1-5.1s0.7-3.7,2.1-5.2
		c1.4-1.4,3.1-2.1,5.1-2.1h5.3c1.2,0,2.2-0.4,2.9-1.1c0.7-0.7,1.1-1.7,1.1-2.9c0-1.2-0.4-2.2-1.1-2.9c-0.7-0.8-1.7-1.1-2.9-1.1H-49
		c-4.3,0-8,1.5-10.9,4.4s-4.4,6.6-4.4,10.9s1.5,8,4.4,10.9s6.6,4.4,10.9,4.4c4.4,0,8.1-1.6,11.1-4.7c0.8-0.8,1.2-1.8,1.2-2.8
		C-36.7,0.4-37.3-0.7-38.5-1.6z"/>
	<path class="st0" d="M-18.2-21.5c-4.3,0-8,1.5-10.9,4.4c-2.9,3-4.4,6.6-4.4,10.9s1.5,8,4.4,10.9c2.9,2.9,6.6,4.4,10.9,4.4
		s8-1.5,10.9-4.4c3-3,4.4-6.6,4.4-11v-11.3c0-1.2-0.4-2.2-1.1-2.9c-0.8-0.7-1.7-1.1-2.9-1.1c-1.2,0-2.2,0.4-2.9,1.1
		c-0.7,0.7-1.1,1.7-1.1,2.9v11.3c0,2-0.7,3.7-2.1,5.1c-1.4,1.4-3.1,2.1-5.1,2.1c-2,0-3.7-0.7-5.1-2.1c-1.4-1.4-2.1-3.1-2.1-5.1
		s0.7-3.7,2.1-5.2c1.4-1.4,3.1-2.1,5.1-2.1c1.2,0,2.2-0.4,2.9-1.1c0.8-0.7,1.1-1.7,1.1-2.9c0-1.2-0.4-2.2-1.1-2.9
		C-16-21.1-17-21.5-18.2-21.5z"/>
	<path class="st0" d="M8.5-3.7v-13.7c0-1.2-0.4-2.2-1.1-2.9c-0.8-0.7-1.7-1.1-2.9-1.1S2.2-21,1.5-20.3c-0.7,0.7-1.1,1.7-1.1,2.9
		v13.6c0,3.6,1.2,6.7,3.8,9.2C6.6,8,9.7,9.2,13.3,9.2c1.2,0,2.1-0.4,2.9-1.1c0.8-0.8,1.1-1.7,1.1-2.9c0-2.5-1.4-3.8-4.1-4.1
		C11.9,1,10.7,0.5,9.8-0.4C8.9-1.2,8.5-2.3,8.5-3.7z"/>
	<path class="st0" d="M35.9-21.5c-4.3,0-8,1.5-10.9,4.4c-2.9,3-4.4,6.6-4.4,10.9s1.5,8,4.4,10.9c2.9,2.9,6.6,4.4,10.9,4.4
		s8-1.5,10.9-4.4c3-3,4.4-6.6,4.4-11v-11.3c0-1.2-0.4-2.2-1.1-2.9c-0.8-0.7-1.7-1.1-2.9-1.1c-1.2,0-2.2,0.4-2.9,1.1
		c-0.7,0.7-1.1,1.7-1.1,2.9v11.3c0,2-0.7,3.7-2.1,5.1c-1.4,1.4-3.1,2.1-5.1,2.1c-2,0-3.7-0.7-5.1-2.1c-1.4-1.4-2.1-3.1-2.1-5.1
		s0.7-3.7,2.1-5.2c1.4-1.4,3.1-2.1,5.1-2.1c1.2,0,2.2-0.4,2.9-1.1c0.8-0.7,1.1-1.7,1.1-2.9c0-1.2-0.4-2.2-1.1-2.9
		C38.1-21.1,37.1-21.5,35.9-21.5z"/>
	<g>
		<path class="st0" d="M98.2-3.7v-13.7c0-1.2-0.4-2.2-1.1-2.9c-0.8-0.8-1.7-1.1-2.9-1.1c-1.2,0-2.2,0.4-2.9,1.1
			c-0.7,0.7-1.1,1.7-1.1,2.9v13.7c0,1.4-0.5,2.5-1.4,3.4s-2.1,1.4-3.4,1.4c-1.4,0-2.5-0.5-3.5-1.4c-0.9-0.9-1.4-2-1.4-3.2
			c0-0.1,0-0.1,0-0.2v-13.7c0-0.6-0.1-1.1-0.3-1.6c-0.2-0.5-0.5-0.9-0.8-1.3c-0.7-0.7-1.5-1-2.5-1.1c-0.1,0-0.2,0-0.4,0
			c-0.2,0-0.3,0-0.4,0c-1,0.1-1.8,0.4-2.5,1.1c-0.4,0.4-0.7,0.8-0.9,1.3c-0.2,0.5-0.3,1-0.3,1.6v13.7c0,0.1,0,0.1,0,0.2
			c0,1.3-0.5,2.4-1.4,3.2c-0.9,0.9-2.1,1.4-3.4,1.4c-1.4,0-2.5-0.5-3.5-1.4s-1.4-2.1-1.4-3.4v-13.7c0-1.2-0.4-2.2-1.1-2.9
			c-0.7-0.8-1.7-1.1-2.9-1.1s-2.2,0.4-2.9,1.1c-0.8,0.7-1.1,1.7-1.1,2.9v13.7c0,3.7,1.2,6.7,3.8,9.2c2.5,2.5,5.6,3.7,9.2,3.7
			c3.5,0,6.5-1.1,8.9-3.4c2.4,2.3,5.4,3.4,8.9,3.4c3.6,0,6.7-1.2,9.2-3.7C97,3,98.2-0.1,98.2-3.7z"/>
		<path class="st0" d="M73.5-20.3c0.7-0.7,1.5-1,2.5-1.1C74.9-21.3,74.1-20.9,73.5-20.3c-0.4,0.4-0.7,0.8-0.9,1.3
			C72.8-19.5,73.1-19.9,73.5-20.3z"/>
		<path class="st0" d="M80.4-3.5v-13.8c0-0.6-0.1-1.1-0.3-1.6c0.2,0.5,0.3,1,0.3,1.6v13.7C80.4-3.6,80.4-3.6,80.4-3.5z"/>
	</g>
</symbol>
<g>
	
		<use xlink:href="#New_Symbol_5"  width="196.5" height="43" id="XMLID_00000155830757658832361980000006648261055577145767_" x="-98.2" y="-21.5" transform="matrix(0.6737 0 0 -0.6794 71.1877 90.9217)" style="overflow:visible;"/>
	
		<use xlink:href="#New_Symbol_3"  width="61.6" height="61.6" id="XMLID_00000172439083038828191790000005324562779897624480_" x="-30.8" y="-30.8" transform="matrix(0.4764 -0.4804 -0.4764 -0.4804 169.2192 95.1)" style="overflow:visible;"/>
</g>
</svg>
