<?xml version="1.0" encoding="utf-8"?>
<!-- Generator: Adobe Illustrator 25.4.1, SVG Export Plug-In . SVG Version: 6.00 Build 0)  -->
<svg version="1.1" id="Layer_1" xmlns="http://www.w3.org/2000/svg" xmlns:xlink="http://www.w3.org/1999/xlink" x="0px" y="0px"
	 viewBox="0 0 200 200" style="enable-background:new 0 0 200 200;" xml:space="preserve">
<style type="text/css">
	.st0{fill:#FFFFFF;}
</style>
<symbol  id="New_Symbol" viewBox="-118.5 -30.8 237 61.6">
	<path class="st0" d="M-102.9-30.8h-2.6c-3.6,0-6.7,1.3-9.2,3.8c-2.5,2.5-3.8,5.6-3.8,9.2v35.7c0,3.6,1.2,6.7,3.8,9.2
		c2.5,2.5,5.6,3.8,9.2,3.8h2.6c1.2,0,2.2-0.4,2.9-1.1c0.7-0.8,1.1-1.7,1.1-2.9s-0.4-2.2-1.1-2.9s-1.7-1.1-2.9-1.1h-2.6
		c-1.4,0-2.5-0.5-3.5-1.4c-0.9-0.9-1.4-2.1-1.4-3.5v-35.7c0-1.4,0.5-2.5,1.4-3.4c0.9-0.9,2.1-1.4,3.5-1.4h2.6c1.2,0,2.2-0.4,2.9-1.1
		c0.7-0.8,1.1-1.7,1.1-2.9s-0.4-2.2-1.1-2.9S-101.7-30.8-102.9-30.8z"/>
	<path class="st0" d="M-82.4,4.9c-2,0-3.7-0.7-5.1-2.1c-1.4-1.4-2.1-3.1-2.1-5.1c0-2,0.7-3.7,2.1-5.1c1.4-1.4,3.1-2.1,5.1-2.1
		c2,0,3.7,0.7,5.1,2.1c1.4,1.4,2.1,3.1,2.1,5.1v23.6c0,1.2,0.4,2.1,1.1,2.9c0.8,0.8,1.7,1.1,2.9,1.1c1.2,0,2.2-0.4,2.9-1.1
		c0.8-0.7,1.1-1.7,1.1-2.9V-2.3c0-4.3-1.5-7.9-4.5-10.9c-3-3-6.6-4.4-10.9-4.4c-4.3,0-7.9,1.5-10.9,4.4c-3,3-4.4,6.6-4.4,10.8
		c0,4.3,1.5,7.9,4.4,10.9c2.9,3,6.6,4.4,10.9,4.4c1.2,0,2.2-0.4,2.9-1.1s1.1-1.7,1.1-2.9s-0.4-2.2-1.1-2.9
		C-80.2,5.3-81.2,4.9-82.4,4.9z"/>
	<path class="st0" d="M-37.9,2.2l-7.7-7.5c-0.9-0.8-1.8-1.2-2.8-1.2c-1.1,0-2.1,0.4-2.9,1.2c-0.8,0.8-1.2,1.8-1.2,2.9
		c0,1,0.4,1.9,1.3,2.8l4.3,4.3c-0.5,0.1-1,0.2-1.6,0.2c-2,0-3.7-0.7-5.1-2.1c-1.4-1.4-2.1-3.1-2.1-5.1c0-2,0.7-3.7,2.1-5.2
		c1.4-1.4,3.1-2.1,5.1-2.1h5.3c1.2,0,2.2-0.4,2.9-1.1c0.7-0.7,1.1-1.7,1.1-2.9c0-1.2-0.4-2.2-1.1-2.9c-0.7-0.8-1.7-1.1-2.9-1.1h-5.3
		c-4.3,0-8,1.5-10.9,4.4c-2.9,3-4.4,6.6-4.4,10.9c0,4.3,1.5,8,4.4,10.9c2.9,2.9,6.6,4.4,10.9,4.4c4.4,0,8.1-1.6,11.1-4.7
		c0.8-0.8,1.2-1.8,1.2-2.8C-36.2,4.2-36.8,3.1-37.9,2.2z"/>
	<path class="st0" d="M-17.7-17.7c-4.3,0-8,1.5-10.9,4.4c-2.9,3-4.4,6.6-4.4,10.9c0,4.3,1.5,8,4.4,10.9c2.9,2.9,6.6,4.4,10.9,4.4
		s8-1.5,10.9-4.4c3-3,4.4-6.6,4.4-11v-11.3c0-1.2-0.4-2.2-1.1-2.9s-1.7-1.1-2.9-1.1c-1.2,0-2.2,0.4-2.9,1.1
		c-0.7,0.7-1.1,1.7-1.1,2.9v11.3c0,2-0.7,3.7-2.1,5.1c-1.4,1.4-3.1,2.1-5.1,2.1c-2,0-3.7-0.7-5.1-2.1c-1.4-1.4-2.1-3.1-2.1-5.1
		c0-2,0.7-3.7,2.1-5.2c1.4-1.4,3.1-2.1,5.1-2.1c1.2,0,2.2-0.4,2.9-1.1c0.8-0.7,1.1-1.7,1.1-2.9c0-1.2-0.4-2.2-1.1-2.9
		C-15.5-17.3-16.5-17.7-17.7-17.7z"/>
	<path class="st0" d="M9,0.1v-13.7c0-1.2-0.4-2.2-1.1-2.9c-0.8-0.7-1.7-1.1-2.9-1.1S2.8-17.2,2-16.5s-1.1,1.7-1.1,2.9V0.1
		c0,3.6,1.2,6.7,3.8,9.2c2.5,2.5,5.6,3.7,9.2,3.7c1.2,0,2.1-0.4,2.9-1.1c0.8-0.8,1.1-1.7,1.1-2.9c0-2.5-1.4-3.8-4.1-4.1
		c-1.4-0.1-2.5-0.6-3.4-1.5C9.5,2.6,9,1.4,9,0.1z"/>
	<path class="st0" d="M36.5-17.7c-4.3,0-8,1.5-10.9,4.4c-2.9,3-4.4,6.6-4.4,10.9c0,4.3,1.5,8,4.4,10.9c2.9,2.9,6.6,4.4,10.9,4.4
		s8-1.5,10.9-4.4c3-3,4.4-6.6,4.4-11v-11.3c0-1.2-0.4-2.2-1.1-2.9s-1.7-1.1-2.9-1.1c-1.2,0-2.2,0.4-2.9,1.1
		c-0.7,0.7-1.1,1.7-1.1,2.9v11.3c0,2-0.7,3.7-2.1,5.1c-1.4,1.4-3.1,2.1-5.1,2.1c-2,0-3.7-0.7-5.1-2.1c-1.4-1.4-2.1-3.1-2.1-5.1
		c0-2,0.7-3.7,2.1-5.2c1.4-1.4,3.1-2.1,5.1-2.1c1.2,0,2.2-0.4,2.9-1.1c0.8-0.7,1.1-1.7,1.1-2.9c0-1.2-0.4-2.2-1.1-2.9
		C38.6-17.3,37.7-17.7,36.5-17.7z"/>
	<path class="st0" d="M118.5,17.8v-35.7c0-3.6-1.2-6.7-3.8-9.2s-5.6-3.8-9.2-3.8h-2.9c-3.6,0-6.7,1.3-9.2,3.8s-3.8,5.6-3.8,9.2V0.1
		c0,1.3-0.5,2.5-1.4,3.4c-0.9,0.9-2.1,1.4-3.4,1.4c-1.6,0-2.9-0.6-3.8-1.9v-16.6c0-1.2-0.4-2.2-1.1-2.9c-0.8-0.8-1.7-1.1-2.9-1.1
		c-1.2,0-2.2,0.4-2.9,1.1c-0.7,0.7-1.1,1.7-1.1,2.9V0.1c0,1.3-0.5,2.5-1.4,3.4c-1,0.9-2.1,1.4-3.4,1.4c-1.4,0-2.5-0.5-3.4-1.4
		s-1.4-2.1-1.4-3.4v-13.7c0-1.2-0.4-2.2-1.1-2.9c-0.7-0.8-1.7-1.1-2.9-1.1c-1.2,0-2.2,0.4-2.9,1.1c-0.8,0.7-1.1,1.7-1.1,2.9V0.1
		c0,3.7,1.2,6.7,3.8,9.2c2.5,2.5,5.6,3.7,9.2,3.7c3.2,0,6-1,8.4-3.1c2.4,2.1,5.2,3.1,8.4,3.1c3.6,0,6.7-1.2,9.2-3.7
		c2.5-2.5,3.7-5.5,3.7-9.2v-17.9c0-1.4,0.5-2.5,1.4-3.4c0.9-0.9,2.1-1.4,3.4-1.4h2.9c1.4,0,2.5,0.5,3.4,1.4c0.9,0.9,1.4,2.1,1.4,3.4
		v35.7c0,1.3-0.5,2.5-1.4,3.4c-1,1-2.1,1.4-3.4,1.4h-2.6c-1.2,0-2.2,0.4-2.9,1.1c-0.8,0.7-1.1,1.7-1.1,2.9c0,1.2,0.4,2.2,1.1,2.9
		s1.7,1.1,2.9,1.1h2.6c3.6,0,6.7-1.3,9.2-3.8C117.2,24.5,118.5,21.4,118.5,17.8z"/>
</symbol>
<use xlink:href="#New_Symbol"  width="237" height="61.6" id="XMLID_1_" x="-118.5" y="-30.8" transform="matrix(0.6587 0 0 -0.6491 103.3361 100)" style="overflow:visible;"/>
</svg>
