<?xml version="1.0" encoding="utf-8"?>
<!-- Generator: Adobe Illustrator 25.4.1, SVG Export Plug-In . SVG Version: 6.00 Build 0)  -->
<svg version="1.1" id="Layer_1" xmlns="http://www.w3.org/2000/svg" xmlns:xlink="http://www.w3.org/1999/xlink" x="0px" y="0px"
	 viewBox="0 0 200 200" style="enable-background:new 0 0 200 200;" xml:space="preserve">
<style type="text/css">
	.st0{fill:#FFFFFF;}
</style>
<g>
	<g>
		<g>
			<path class="st0" d="M14.7,94.8c-1.3,0-2.5,0.5-3.4,1.4c-0.9,0.9-1.4,2-1.4,3.3c0,1.3,0.5,2.4,1.4,3.3c0.9,0.9,2.1,1.4,3.4,1.4
				c1.3,0,2.5-0.5,3.5-1.4c1-0.9,1.4-2,1.4-3.3V84.1c0-0.8,0.3-1.4,0.8-1.9c0.5-0.5,1.2-0.7,1.9-0.7c0.8,0,1.5,0.2,2,0.7
				c0.5,0.5,0.8,1.1,0.8,1.9v15.4c0,2.8-1,5.2-3,7.1c-2,1.9-4.5,2.9-7.3,2.9c-2.9,0-5.3-1-7.3-2.9c-2-1.9-3-4.3-3-7.1
				c0-2.8,1-5.2,3-7.1c2-1.9,4.4-2.9,7.3-2.9c0.8,0,1.5,0.2,2,0.7c0.5,0.5,0.8,1.1,0.8,1.9s-0.3,1.4-0.8,1.9
				C16.2,94.6,15.5,94.8,14.7,94.8z"/>
			<path class="st0" d="M44.7,96.6l-5.2,4.9c-0.6,0.5-1.2,0.8-1.9,0.8c-0.8,0-1.4-0.3-2-0.8c-0.6-0.5-0.8-1.2-0.8-1.9
				c0-0.6,0.3-1.3,0.9-1.8l2.9-2.8c-0.3-0.1-0.7-0.1-1.1-0.1c-1.3,0-2.5,0.5-3.4,1.4c-0.9,0.9-1.4,2-1.4,3.3c0,1.3,0.5,2.4,1.4,3.4
				c0.9,0.9,2.1,1.4,3.4,1.4h3.6c0.8,0,1.5,0.2,2,0.7c0.5,0.5,0.7,1.1,0.7,1.9c0,0.8-0.2,1.4-0.7,1.9c-0.5,0.5-1.2,0.7-2,0.7h-3.6
				c-2.9,0-5.4-1-7.3-2.9c-2-1.9-3-4.3-3-7.1c0-2.8,1-5.2,3-7.1s4.4-2.9,7.3-2.9c2.9,0,5.4,1,7.5,3.1c0.5,0.6,0.8,1.2,0.8,1.8
				C45.9,95.3,45.5,96,44.7,96.6z"/>
			<path class="st0" d="M58.3,109.6c-2.9,0-5.4-1-7.3-2.9c-2-1.9-3-4.3-3-7.1c0-2.8,1-5.2,3-7.1c2-1.9,4.4-2.9,7.3-2.9
				c2.9,0,5.4,1,7.4,2.9c2,1.9,3,4.3,3,7.2v7.4c0,0.8-0.3,1.4-0.8,1.9c-0.5,0.5-1.2,0.7-2,0.7c-0.8,0-1.5-0.2-2-0.7
				c-0.5-0.5-0.7-1.1-0.7-1.9v-7.4c0-1.3-0.5-2.4-1.4-3.4c-1-0.9-2.1-1.4-3.5-1.4c-1.3,0-2.5,0.5-3.4,1.4c-0.9,0.9-1.4,2-1.4,3.3
				c0,1.3,0.5,2.4,1.4,3.4c0.9,0.9,2.1,1.4,3.4,1.4c0.8,0,1.5,0.2,2,0.7c0.5,0.5,0.8,1.1,0.8,1.9c0,0.8-0.3,1.4-0.8,1.9
				C59.8,109.4,59.1,109.6,58.3,109.6z"/>
			<path class="st0" d="M76.3,98v8.9c0,0.8-0.3,1.4-0.8,1.9c-0.5,0.5-1.2,0.7-2,0.7s-1.5-0.2-2-0.7c-0.5-0.5-0.7-1.1-0.7-1.9V98
				c0-2.4,0.8-4.4,2.5-6c1.7-1.6,3.8-2.4,6.2-2.4c0.8,0,1.4,0.2,1.9,0.7c0.5,0.5,0.8,1.1,0.8,1.9c0,1.6-0.9,2.5-2.8,2.7
				c-0.9,0.1-1.7,0.4-2.3,1C76.6,96.4,76.3,97.1,76.3,98z"/>
			<path class="st0" d="M94.8,109.6c-2.9,0-5.4-1-7.3-2.9c-2-1.9-3-4.3-3-7.1c0-2.8,1-5.2,3-7.1c2-1.9,4.4-2.9,7.3-2.9
				s5.4,1,7.4,2.9c2,1.9,3,4.3,3,7.2v7.4c0,0.8-0.3,1.4-0.8,1.9c-0.5,0.5-1.2,0.7-2,0.7c-0.8,0-1.5-0.2-2-0.7
				c-0.5-0.5-0.7-1.1-0.7-1.9v-7.4c0-1.3-0.5-2.4-1.4-3.4c-1-0.9-2.1-1.4-3.5-1.4c-1.3,0-2.5,0.5-3.4,1.4c-0.9,0.9-1.4,2-1.4,3.3
				c0,1.3,0.5,2.4,1.4,3.4c0.9,0.9,2.1,1.4,3.4,1.4c0.8,0,1.5,0.2,2,0.7c0.5,0.5,0.8,1.1,0.8,1.9c0,0.8-0.3,1.4-0.8,1.9
				C96.3,109.4,95.6,109.6,94.8,109.6z"/>
			<g>
				<path class="st0" d="M136.8,98v8.9c0,0.8-0.3,1.4-0.8,1.9c-0.5,0.5-1.2,0.7-2,0.7c-0.8,0-1.5-0.2-2-0.7
					c-0.5-0.5-0.7-1.1-0.7-1.9V98c0-0.9-0.3-1.6-0.9-2.2c-0.6-0.6-1.4-0.9-2.3-0.9c-0.9,0-1.7,0.3-2.3,0.9c-0.6,0.6-0.9,1.3-0.9,2.1
					c0,0,0,0.1,0,0.1v8.9c0,0.4-0.1,0.7-0.2,1.1c-0.1,0.3-0.3,0.6-0.6,0.8c-0.5,0.4-1,0.7-1.7,0.7c-0.1,0-0.2,0-0.3,0
					c-0.1,0-0.2,0-0.3,0c-0.7-0.1-1.2-0.3-1.7-0.7c-0.3-0.2-0.5-0.5-0.6-0.8c-0.1-0.3-0.2-0.7-0.2-1.1V98c0,0,0-0.1,0-0.1
					c0-0.8-0.3-1.5-0.9-2.1c-0.6-0.6-1.4-0.9-2.3-0.9c-0.9,0-1.7,0.3-2.3,0.9c-0.6,0.6-0.9,1.4-0.9,2.2v8.9c0,0.8-0.2,1.4-0.7,1.9
					c-0.5,0.5-1.2,0.7-2,0.7c-0.8,0-1.5-0.2-2-0.7c-0.5-0.5-0.8-1.1-0.8-1.9V98c0-2.4,0.8-4.4,2.5-6c1.7-1.6,3.8-2.4,6.2-2.4
					c2.4,0,4.4,0.8,6,2.2c1.6-1.5,3.6-2.2,6-2.2c2.5,0,4.5,0.8,6.2,2.4C136,93.6,136.8,95.6,136.8,98z"/>
				<path class="st0" d="M120.1,108.8c0.5,0.4,1,0.7,1.7,0.7C121.1,109.5,120.5,109.2,120.1,108.8c-0.3-0.2-0.5-0.5-0.6-0.8
					C119.7,108.3,119.8,108.6,120.1,108.8z"/>
				<path class="st0" d="M124.8,97.9v9c0,0.4-0.1,0.7-0.2,1.1c0.1-0.3,0.2-0.7,0.2-1.1V98C124.8,97.9,124.8,97.9,124.8,97.9z"/>
			</g>
		</g>
	</g>
	<g>
		<g>
			<path class="st0" d="M176.1,120.8l-1.3,1.2c-1.7,1.7-3.8,2.5-6.2,2.5c-2.4,0-4.4-0.8-6.2-2.5l-17-16.5c-1.7-1.7-2.6-3.7-2.6-6
				c0-2.3,0.9-4.3,2.6-6l1.3-1.2c0.6-0.6,1.2-0.8,1.9-0.8c0.7,0,1.4,0.3,1.9,0.8s0.9,1.2,0.9,1.9c0,0.7-0.3,1.3-0.9,1.9l-1.3,1.2
				c-0.6,0.6-1,1.4-1,2.2c0,0.9,0.3,1.6,1,2.2l17,16.5c0.6,0.6,1.4,0.9,2.3,0.9c0.9,0,1.7-0.3,2.3-0.9l1.3-1.2
				c0.6-0.6,1.2-0.8,1.9-0.8c0.7,0,1.4,0.3,1.9,0.8c0.6,0.6,0.9,1.2,0.9,1.9C176.9,119.7,176.6,120.3,176.1,120.8z"/>
			<path class="st0" d="M188.6,107.6c-0.7,0-1.4-0.3-1.9-0.8c-0.6-0.6-0.9-1.2-0.9-1.9c0-0.7,0.3-1.3,0.9-1.9l1.3-1.2
				c0.6-0.6,1-1.4,1-2.2c0-0.9-0.3-1.6-1-2.2l-17-16.5c-0.6-0.6-1.4-0.9-2.3-0.9s-1.7,0.3-2.3,0.9l-1.3,1.2
				c-0.6,0.6-1.2,0.8-1.9,0.8c-0.7,0-1.4-0.3-1.9-0.8s-0.9-1.2-0.9-1.9c0-0.7,0.3-1.3,0.9-1.9l1.3-1.2c1.7-1.7,3.8-2.5,6.2-2.5
				c2.4,0,4.5,0.8,6.2,2.5l17,16.5c1.7,1.7,2.6,3.7,2.6,6c0,2.3-0.9,4.3-2.6,6l-1.3,1.2C190,107.3,189.3,107.6,188.6,107.6z"/>
			<path class="st0" d="M176.9,80.2c0,0.7-0.3,1.3-0.8,1.9c-0.6,0.6-1.2,0.8-1.9,0.8c-0.7,0-1.4-0.3-1.9-0.8l-1.3-1.2
				c-0.6-0.6-1.4-0.9-2.3-0.9c-0.9,0-1.7,0.3-2.3,0.9l-17,16.5c-0.6,0.6-0.9,1.4-0.9,2.2c0,0.9,0.3,1.6,0.9,2.2l1.3,1.2
				c0.6,0.6,0.9,1.2,0.9,1.9c0,0.7-0.3,1.3-0.8,1.9s-1.2,0.8-1.9,0.8c-0.7,0-1.4-0.3-1.9-0.8l-1.3-1.2c-1.7-1.7-2.6-3.7-2.6-6
				s0.9-4.3,2.6-6l17-16.5c1.7-1.7,3.8-2.5,6.2-2.5c2.4,0,4.4,0.8,6.2,2.5l1.3,1.2C176.6,78.9,176.9,79.5,176.9,80.2z"/>
		</g>
	</g>
</g>
</svg>
