<?xml version="1.0" encoding="utf-8"?>
<!-- Generator: Adobe Illustrator 25.4.1, SVG Export Plug-In . SVG Version: 6.00 Build 0)  -->
<svg version="1.1" id="Layer_1" xmlns="http://www.w3.org/2000/svg" xmlns:xlink="http://www.w3.org/1999/xlink" x="0px" y="0px"
	 viewBox="0 0 200 200" style="enable-background:new 0 0 200 200;" xml:space="preserve">
<style type="text/css">
	.st0{fill:#FFFFFF;}
</style>
<symbol  id="New_Symbol_6" viewBox="-39.7 -39.7 79.5 79.5">
	<path class="st0" d="M35.4-10.2l-1.9-1.9c-1.1-1.1-2.4-1.7-3.9-1.7c-1.5,0-2.8,0.6-3.9,1.7c-0.6,0.6-0.6,1.5,0,2.1s1.5,0.6,2.1,0
		c0.6-0.6,1.1-0.8,1.8-0.8c0.7,0,1.2,0.3,1.8,0.9l1.9,1.9c2.3,2.3,3.4,5,3.4,8.1c0,3.2-1.1,5.8-3.4,8.1L8.1,33.4
		c-0.5,0.5-0.9,0.8-1.3,1.2c-2,1.5-4.2,2.2-6.8,2.2c-2.6,0-4.8-0.7-6.8-2.2c-0.4-0.3-0.9-0.7-1.3-1.2L-33.4,8.1
		c-0.4-0.4-0.8-0.8-1.2-1.4C-36,4.8-36.7,2.6-36.7,0c0-2.6,0.7-4.8,2.2-6.8c0.4-0.5,0.8-0.9,1.2-1.3l25.2-25.2
		c2.3-2.3,5-3.4,8.1-3.4c3.2,0,5.8,1.1,8.1,3.4l1.9,1.9c0.6,0.6,0.8,1.1,0.8,1.8c0,0.6-0.3,1.2-0.8,1.8c-0.6,0.6-0.6,1.5,0,2.1
		c0.6,0.6,1.5,0.6,2.1,0c1.1-1.1,1.7-2.4,1.7-3.9c0-1.5-0.6-2.8-1.7-3.9l-1.9-1.9C7.4-38.3,3.9-39.7,0-39.7c-3.9,0-7.4,1.4-10.2,4.3
		l-25.2,25.2c-0.5,0.5-1,1-1.4,1.6c-1.9,2.5-2.8,5.4-2.8,8.6s0.9,6.1,2.8,8.6c0.5,0.6,1,1.2,1.5,1.7l25.2,25.2
		c0.5,0.5,1.1,1,1.7,1.5c2.5,1.9,5.4,2.8,8.6,2.8c3.2,0,6.1-0.9,8.6-2.8c0.6-0.4,1.1-0.9,1.7-1.5l25.2-25.2C38.3,7.4,39.7,4,39.7,0
		C39.7-3.9,38.3-7.4,35.4-10.2z"/>
	<g>
		<path class="st0" d="M22.1-14.3c0-1.2-0.4-2.2-1.1-2.9s-1.7-1.1-2.9-1.1h-5.3c-4,0-7.4,1.3-10.2,3.8c2.1,2.2,3.5,4.8,4.1,7.7
			c0.3-0.5,0.6-0.9,1-1.3c1.4-1.4,3.1-2.1,5.1-2.1h5.3c1.2,0,2.2-0.4,2.9-1.1S22.1-13.1,22.1-14.3z"/>
		<g>
			<path class="st0" d="M5.6,20.5v-8.2C3.8,11.5,2.3,10.4,0.8,9c-1.4-1.4-2.5-3-3.3-4.8v16.3c0,1.2,0.4,2.1,1.1,2.9s1.7,1.1,2.9,1.1
				c1.2,0,2.2-0.4,2.9-1.1C5.2,22.7,5.6,21.7,5.6,20.5z"/>
			<path class="st0" d="M25.1,4.9c0-1.3-0.6-2.4-1.7-3.3L15.7-6c-0.9-0.8-1.8-1.2-2.8-1.2c-1.1,0-2.1,0.4-2.9,1.2
				C9.1-5.1,8.7-4.1,8.7-3c0,1,0.4,1.9,1.3,2.8l4.3,4.3c-0.5,0.1-1,0.2-1.6,0.2c-2,0-3.7-0.7-5.1-2.1C7.5,1.9,7.3,1.7,7.1,1.4
				C6.8,1.1,6.5,0.7,6.3,0.3C5.8-0.7,5.6-1.8,5.6-3v-0.1c0-4.1-1.4-7.6-4.1-10.5c-0.1-0.1-0.3-0.3-0.4-0.4C1.1-14,1-14,1-14.1
				c-0.2-0.2-0.3-0.3-0.5-0.5c-2.8-2.5-6.2-3.8-10.2-3.8c-4.3,0-7.9,1.5-10.9,4.4c-3,3-4.4,6.6-4.4,10.8c0,4.3,1.5,8,4.4,10.9
				c2.9,3,6.6,4.4,10.9,4.4c1.2,0,2.2-0.4,2.9-1.1s1.1-1.7,1.1-2.9S-6.1,6-6.8,5.2c-0.8-0.7-1.7-1.1-2.9-1.1c-2,0-3.7-0.7-5.1-2.1
				C-16.3,0.6-17-1.1-17-3.1s0.7-3.7,2.1-5.1c1.4-1.4,3.1-2.1,5.1-2.1s3.7,0.7,5.1,2.1c0.4,0.4,0.8,0.8,1,1.3c0.2,0.3,0.4,0.7,0.6,1
				C-2.7-5-2.5-4.1-2.5-3.1V-3c0,4.3,1.5,8,4.4,10.9c1.1,1.1,2.4,2,3.7,2.7c0.2,0.1,0.5,0.2,0.8,0.4c0.2,0.1,0.5,0.2,0.8,0.3
				c1.7,0.7,3.6,1,5.7,1c4.4,0,8.1-1.6,11.1-4.7C24.7,6.8,25.1,5.9,25.1,4.9z"/>
		</g>
	</g>
	<g>
		<path class="st0" d="M-6.2-21.9v-2c0-0.2-0.1-0.3-0.2-0.4c-0.1-0.1-0.3-0.2-0.4-0.2c-0.2,0-0.3,0.1-0.4,0.2
			c-0.1,0.1-0.2,0.3-0.2,0.4v2c0,0.5,0.2,1,0.6,1.3C-6.5-20.2-6-20-5.5-20c0.2,0,0.3-0.1,0.4-0.2c0.1-0.1,0.2-0.3,0.2-0.4
			c0-0.4-0.2-0.6-0.6-0.6c-0.2,0-0.4-0.1-0.5-0.2C-6.1-21.5-6.2-21.7-6.2-21.9z"/>
		<path class="st0" d="M-2-24.5c-0.7,0-1.2,0.2-1.7,0.7c-0.4,0.4-0.7,1-0.7,1.6c0,0.6,0.2,1.2,0.7,1.6c0.4,0.4,1,0.6,1.7,0.6
			s1.2-0.2,1.7-0.6c0.4-0.4,0.7-1,0.7-1.6v-1.7c0-0.2-0.1-0.3-0.2-0.4c-0.1-0.1-0.3-0.2-0.4-0.2c-0.2,0-0.3,0.1-0.4,0.2
			c-0.1,0.1-0.2,0.3-0.2,0.4v1.7c0,0.3-0.1,0.5-0.3,0.8c-0.2,0.2-0.5,0.3-0.8,0.3c-0.3,0-0.6-0.1-0.8-0.3c-0.2-0.2-0.3-0.5-0.3-0.8
			c0-0.3,0.1-0.5,0.3-0.8c0.2-0.2,0.5-0.3,0.8-0.3c0.2,0,0.3-0.1,0.4-0.2c0.1-0.1,0.2-0.3,0.2-0.4c0-0.2-0.1-0.3-0.2-0.4
			C-1.7-24.4-1.9-24.5-2-24.5z"/>
		<g>
			<path class="st0" d="M2.8-20v-1.2c-0.2,0-0.4-0.1-0.5-0.2C2.1-21.5,2-21.7,2-21.9v-2c0-0.2-0.1-0.3-0.2-0.4
				c-0.1-0.1-0.3-0.2-0.4-0.2S1.1-24.4,1-24.3c-0.1,0.1-0.2,0.3-0.2,0.4v2c0,0.5,0.2,1,0.6,1.3C1.7-20.2,2.2-20,2.8-20z"/>
			<path class="st0" d="M2.8-20v-1.2c0.2,0,0.4-0.1,0.5-0.2c0.1-0.1,0.2-0.3,0.2-0.5v-2c0-0.2,0.1-0.3,0.2-0.4
				c0.1-0.1,0.3-0.2,0.4-0.2c0.2,0,0.3,0.1,0.4,0.2c0.1,0.1,0.2,0.3,0.2,0.4v2c0,0.5-0.2,1-0.6,1.3C3.8-20.2,3.3-20,2.8-20z"/>
		</g>
		<g>
			<path class="st0" d="M5.5-20v-1.2c-0.2,0-0.4-0.1-0.5-0.2c-0.1-0.1-0.2-0.3-0.2-0.5v-2c0-0.2-0.1-0.3-0.2-0.4
				c-0.1-0.1-0.3-0.2-0.4-0.2s-0.3,0.1-0.4,0.2c-0.1,0.1-0.2,0.3-0.2,0.4v2c0,0.5,0.2,1,0.6,1.3C4.4-20.2,4.9-20,5.5-20z"/>
			<path class="st0" d="M5.5-20v-1.2c0.2,0,0.4-0.1,0.5-0.2c0.1-0.1,0.2-0.3,0.2-0.5v-2c0-0.2,0.1-0.3,0.2-0.4
				c0.1-0.1,0.3-0.2,0.4-0.2s0.3,0.1,0.4,0.2c0.1,0.1,0.2,0.3,0.2,0.4v2c0,0.5-0.2,1-0.6,1.3C6.5-20.2,6-20,5.5-20z"/>
		</g>
	</g>
</symbol>
<use xlink:href="#New_Symbol_6"  width="79.5" height="79.5" id="XMLID_3_" x="-39.7" y="-39.7" transform="matrix(2.3901 0 0 -2.3901 99.8375 99.8112)" style="overflow:visible;"/>
</svg>
