<?xml version="1.0" encoding="utf-8"?>
<!-- Generator: Adobe Illustrator 25.4.1, SVG Export Plug-In . SVG Version: 6.00 Build 0)  -->
<svg version="1.1" id="Layer_1" xmlns="http://www.w3.org/2000/svg" xmlns:xlink="http://www.w3.org/1999/xlink" x="0px" y="0px"
	 viewBox="0 0 500 500" style="enable-background:new 0 0 500 500;" xml:space="preserve">
<style type="text/css">
	.st0{fill:#E0E0E0;}
	.st1{fill:#F0F0F0;}
	.st2{fill:#F5F5F5;}
	.st3{fill:#B24CEA;}
	.st4{opacity:0.6;fill:#FFFFFF;enable-background:new    ;}
	.st5{opacity:0.2;enable-background:new    ;}
	.st6{opacity:0.4;enable-background:new    ;}
	.st7{opacity:0.3;enable-background:new    ;}
	.st8{opacity:0.5;fill:#FFFFFF;enable-background:new    ;}
	.st9{fill:#E4897B;}
	.st10{fill:#263238;}
	.st11{fill:#DE5753;}
	.st12{opacity:0.6;enable-background:new    ;}
	.st13{fill:#CE6F64;}
	.st14{opacity:0.1;enable-background:new    ;}
	.st15{opacity:0.4;fill:#FFFFFF;enable-background:new    ;}
</style>
<g id="freepik--background-complete--inject-16">
	<rect x="31" y="382.4" class="st0" width="500" height="0.2"/>
	<rect x="374.3" y="393" class="st0" width="34.4" height="0.2"/>
	<rect x="122.7" y="393.1" class="st0" width="19.4" height="0.2"/>
	<rect x="242.8" y="392.5" class="st0" width="39.2" height="0.2"/>
	<rect x="224.2" y="389" class="st0" width="17.5" height="0.2"/>
	<rect x="402.6" y="389.1" class="st0" width="53" height="0.2"/>
	<path class="st0" d="M268,337.8H74.9c-3.1,0-5.7-2.6-5.7-5.7V60.7c0-3.1,2.6-5.7,5.7-5.7H268c3.2,0,5.7,2.6,5.7,5.7c0,0,0,0,0,0
		v271.4C273.7,335.2,271.2,337.8,268,337.8z M74.9,55.2c-3,0-5.5,2.4-5.5,5.5v271.4c0,3,2.4,5.5,5.5,5.5H268c3,0,5.5-2.4,5.5-5.5
		V60.7c0-3-2.4-5.5-5.5-5.5H74.9z"/>
	<path class="st0" d="M484.3,337.8H291.2c-3.2,0-5.7-2.6-5.7-5.7V60.7c0-3.1,2.6-5.7,5.7-5.7h193.1c3.1,0,5.7,2.5,5.7,5.7v271.4
		C490,335.2,487.5,337.8,484.3,337.8z M291.2,55.2c-3,0-5.5,2.4-5.5,5.5v271.4c0,3,2.4,5.5,5.5,5.5h193.1c3,0,5.5-2.4,5.5-5.5V60.7
		c0-3-2.4-5.5-5.5-5.5H291.2z"/>
	<path class="st0" d="M470.3,257.2c-12.3-18.7-1.1-38.9-2.9-59.7s-21.7-25.4-17.9-43c4.3-20.5-7.2-40.1-20.3-40.1
		s-24.7,19.6-20.3,40.1c3.8,17.6-16,22.2-17.9,43s9.4,41-3,59.7s-9.1,43.5-2.1,55.8c1.8,3.3,4.1,6.3,6.6,9
		c18.9,20.3,50.7,21.4,70.9,2.5c0.9-0.8,1.7-1.6,2.5-2.5c2.5-2.7,4.8-5.8,6.6-9C479.4,300.8,482.6,276,470.3,257.2z"/>
	<path class="st1" d="M429.1,271.4L429.1,271.4c3.4,0,6.2,2.8,6.2,6.2l0,0v104.7l0,0h-12.4l0,0V277.7
		C422.9,274.2,425.7,271.4,429.1,271.4z"/>
	<path class="st0" d="M350.9,382.4H334V277.7c0-4.7,3.8-8.5,8.5-8.5l0,0c4.7,0,8.5,3.8,8.5,8.5L350.9,382.4z"/>
	<circle class="st1" cx="342.4" cy="302" r="52.2"/>
	<circle class="st1" cx="383.8" cy="281.4" r="20.6"/>
	<circle class="st1" cx="300.2" cy="269.2" r="12.2"/>
	<circle class="st1" cx="313.5" cy="262.9" r="8.5"/>
	<path class="st0" d="M235,319.9c-8.1,1.2-15.9,4.2-22.7,8.7c-0.1-7.9-1.5-15.4-5.2-21.5c-5.7,5.5-10.2,12.6-14,20.3
		c-1.4-14.4-5.2-28.4-13.6-37.3c-12.6,7.9-19.1,21.1-22.1,35c-5.1-9.4-12.5-17.4-21.5-23.2c-7.7,8.1-10.1,19.3-9.9,30.8
		c-8.7-10.2-18.4-18.1-27.9-19c-2.3,16.1,2.6,31.3,8.9,43.3c8.3,15.7,24.7,25.5,42.5,25.4h41.1c17.5,0,33.9-9.3,42.1-24.8
		C237.9,347.8,240.4,335.2,235,319.9z"/>
	<path class="st1" d="M223.3,112.1c5.1-14.9,1-25.5-11.4-25.5c-7.8,0-17.4,4.2-26.8,10.9c-1.1-3.9-4.1-6.2-8.9-6.2
		c-8.5,0-20.1,7.2-29.3,17.3c-2.6-2.4-6-3.8-9.5-3.8c-8.1-0.5-17.9,3.7-26.4,10.3c-0.9-1.2-2.3-1.9-3.8-1.9
		c-4.7-0.3-11,3.9-14.1,9.3c-0.2,0.3-0.4,0.7-0.5,1h133.2C226.1,118.9,225.3,114.9,223.3,112.1z"/>
	<path class="st1" d="M223.7,202.4c2.5-7.3,0.5-12.4-5.6-12.4c-3.8,0-8.5,2-13.1,5.4c-0.5-1.9-2.3-3.2-4.3-3
		c-4.1,0-9.8,3.5-14.3,8.4c-1.3-1.2-2.9-1.9-4.7-1.9c-4-0.2-8.8,1.8-12.9,5.1c-0.4-0.6-1.1-0.9-1.8-1c-2.3-0.1-5.4,1.9-6.9,4.5
		l-0.3,0.5h65.1C225.2,206.1,224.7,204.1,223.7,202.4z"/>
	<path class="st1" d="M373.8,147.5c-0.5-0.1-1-0.1-1.5-0.1c0.5-7.2-2.3-11.9-8.2-11.9c-4.3,0-9.5,2.4-14.9,6.5
		c1.5-14.1-3.4-23.2-14.5-23.2c-8.9,0-20.3,6-31.5,15.7c-1-5.5-4.3-8.8-9.8-8.8c-9.7,0-23.6,10.2-34.6,24.7l0,0
		c-2.6-3.4-6.5-5.4-10.7-5.5c-9.3-0.6-20.8,5.2-31,14.8c-0.8-1.6-2.4-2.7-4.2-2.8c-5.1-0.4-12,4.9-16.1,12h185.2
		C386.3,158.1,382.8,148.7,373.8,147.5z"/>
</g>
<g id="freepik--Shadow--inject-16">
	<ellipse class="st2" cx="281" cy="416.2" rx="193.9" ry="11.3"/>
</g>
<g id="freepik--Mail--inject-16">
	<polygon class="st3" points="79.9,150.6 307.8,183.4 338.4,214.2 	"/>
	<polygon class="st4" points="79.9,150.6 307.8,183.4 338.4,214.2 	"/>
	<polygon class="st3" points="79.9,150.6 307.8,183.4 297.2,228 	"/>
	<polygon class="st5" points="79.9,150.6 307.8,183.4 297.2,228 	"/>
	<path class="st3" d="M292.6,98.9l13.2,62c0.7,3.4-1.4,6.7-4.8,7.4l-118.1,25.2c-3.4,0.7-6.7-1.4-7.4-4.8l-13.2-62
		c-0.7-3.4,1.4-6.7,4.8-7.4l118.1-25.2C288.5,93.4,291.8,95.5,292.6,98.9L292.6,98.9z"/>
	<path class="st6" d="M292.6,98.9l13.2,62c0.7,3.4-1.4,6.7-4.8,7.4l-118.1,25.2c-3.4,0.7-6.7-1.4-7.4-4.8l-13.2-62
		c-0.7-3.4,1.4-6.7,4.8-7.4l118.1-25.2C288.5,93.4,291.8,95.5,292.6,98.9L292.6,98.9z"/>
	<path class="st3" d="M289.7,94.8l-39.4,48.4c-7.5,9.3-20.5,12-31.1,6.6l-55.8-28.1c0.9-1.3,2.3-2.2,3.8-2.5l118.1-25.2
		C286.7,93.7,288.3,94,289.7,94.8z"/>
	<polygon class="st3" points="79.9,150.6 267.9,195.2 297.2,228 	"/>
	<polygon class="st4" points="79.9,150.6 267.9,195.2 297.2,228 	"/>
	
		<rect x="158.2" y="188.1" transform="matrix(0.5054 -0.8629 0.8629 0.5054 -94.274 235.9113)" class="st3" width="1" height="24.2"/>
	
		<rect x="181.6" y="209.6" transform="matrix(0.5054 -0.8629 0.8629 0.5054 -94.5223 262.9496)" class="st3" width="1" height="8.7"/>
	<polygon class="st3" points="79.9,150.6 267.9,195.2 231.3,239.3 	"/>
	<path class="st3" d="M331.4,255.3c-0.3,0-0.5,0-0.7-0.1L300,243c-1-0.4-1.5-1.6-1.1-2.6c0.4-1,1.6-1.5,2.6-1.1l30.6,12.1
		c1,0.4,1.5,1.6,1.1,2.6C332.9,254.8,332.2,255.3,331.4,255.3L331.4,255.3z"/>
	<path class="st7" d="M331.4,255.3c-0.3,0-0.5,0-0.7-0.1L300,243c-1-0.4-1.5-1.6-1.1-2.6c0.4-1,1.6-1.5,2.6-1.1l30.6,12.1
		c1,0.4,1.5,1.6,1.1,2.6C332.9,254.8,332.2,255.3,331.4,255.3L331.4,255.3z"/>
	<path class="st3" d="M329.5,237.7c-0.3,0-0.5-0.1-0.7-0.1l-16.4-6.6c-1-0.4-1.5-1.6-1.1-2.6s1.6-1.5,2.6-1.1c0,0,0,0,0,0l16.5,6.5
		c1,0.4,1.5,1.6,1.1,2.6C331.1,237.2,330.4,237.7,329.5,237.7z"/>
	<path class="st8" d="M329.5,237.7c-0.3,0-0.5-0.1-0.7-0.1l-16.4-6.6c-1-0.4-1.5-1.6-1.1-2.6s1.6-1.5,2.6-1.1c0,0,0,0,0,0l16.5,6.5
		c1,0.4,1.5,1.6,1.1,2.6C331.1,237.2,330.4,237.7,329.5,237.7z"/>
	<path class="st3" d="M295.2,255c-0.2,0-0.5-0.1-0.7-0.1L264.6,243c-1-0.4-1.5-1.6-1.1-2.6c0.4-1,1.6-1.5,2.6-1.1c0,0,0,0,0,0
		l29.9,11.8c1,0.4,1.5,1.6,1.1,2.6C296.7,254.5,296,255,295.2,255L295.2,255z"/>
	<path class="st7" d="M295.2,255c-0.2,0-0.5-0.1-0.7-0.1L264.6,243c-1-0.4-1.5-1.6-1.1-2.6c0.4-1,1.6-1.5,2.6-1.1c0,0,0,0,0,0
		l29.9,11.8c1,0.4,1.5,1.6,1.1,2.6C296.7,254.5,296,255,295.2,255L295.2,255z"/>
</g>
<g id="freepik--Character--inject-16">
	<path class="st9" d="M403.3,164.8c2.6,5.2,5.1,10.4,7.4,15.6s4.5,10.7,6.3,16.3l0.7,2.1c0.1,0.4,0.3,1,0.4,1.4s0.2,0.9,0.2,1.4
		c0.2,1.6,0.3,3.2,0.4,4.9c0,3-0.1,6-0.4,9c-0.6,5.8-1.5,11.5-2.7,17.2l-5.5-0.6c-0.1-5.6-0.1-11.3-0.3-16.9
		c-0.1-2.8-0.2-5.5-0.5-8.1c-0.1-1.2-0.3-2.4-0.6-3.6c0-0.3-0.1-0.5-0.2-0.7s-0.1-0.3-0.2-0.6l-0.8-1.9c-2.1-5.1-4.4-10.2-6.8-15.2
		l-7.3-15.2L403.3,164.8z"/>
	<path class="st9" d="M410.1,230.4l-2.6,4.8l8.2,2.3c0,0,1.6-3.9-0.3-6.9L410.1,230.4z"/>
	<polygon class="st9" points="404.5,242.1 412,242.7 415.8,237.5 407.6,235.2 	"/>
	<path class="st10" d="M368.9,130.3c-0.1,0.6-0.5,1-0.9,0.9s-0.6-0.6-0.5-1.2s0.5-1,0.9-0.9S369,129.7,368.9,130.3z"/>
	<path class="st11" d="M368.4,131.3c-1.1,1.6-2.3,3.1-3.8,4.4c0.7,0.7,1.7,1.1,2.7,1.1L368.4,131.3z"/>
	<path class="st10" d="M371.6,127.5c-0.1,0-0.2,0-0.2-0.1c-0.6-0.7-1.4-1-2.3-0.9c-0.2,0-0.4-0.2-0.4-0.3c0-0.1,0.1-0.3,0.2-0.3
		c1.1-0.1,2.3,0.3,3,1.2c0.1,0.1,0.1,0.4,0,0.5C371.9,127.5,371.8,127.5,371.6,127.5z"/>
	<path class="st9" d="M385.4,138.4c-1,5.4-2.1,15.2,1.7,18.8c0,0-1.5,5.4-11.5,5.4c-11,0-5.2-5.4-5.2-5.4c6-1.4,5.8-5.9,4.8-10.1
		L385.4,138.4z"/>
	<path class="st10" d="M388.6,160.6c0.8-2.6,1.7-5.6-0.1-6.6c-2-1-12.9-2.1-16.6-0.1s-2.7,7.3-2.7,7.3L388.6,160.6z"/>
	<path class="st3" d="M411.6,410c-0.6,0.1-1.3-0.1-1.8-0.5c-0.2-0.2-0.2-0.6,0-0.8c0.1-0.2,0.3-0.4,0.5-0.4c1.1-0.2,3.1,1.1,3.2,1.2
		c0.1,0,0.1,0.1,0.1,0.2c0,0.1-0.1,0.1-0.1,0.1C412.9,409.9,412.3,410,411.6,410z M410.7,408.6h-0.2c-0.1,0-0.3,0.1-0.3,0.2
		c-0.2,0.3-0.1,0.4,0,0.4c0.3,0.4,1.8,0.4,2.9,0.2C412.4,409,411.6,408.7,410.7,408.6L410.7,408.6z"/>
	<path class="st3" d="M413.5,409.8L413.5,409.8c-0.8-0.4-2.3-2-2.2-2.8c0.1-0.3,0.3-0.5,0.6-0.5c0.3,0,0.5,0.1,0.7,0.2
		c0.9,0.7,1,2.8,1,2.9C413.7,409.7,413.6,409.8,413.5,409.8C413.6,409.8,413.5,409.8,413.5,409.8z M412,406.8L412,406.8
		c-0.3,0-0.3,0.1-0.3,0.2c-0.1,0.5,0.9,1.7,1.6,2.3c-0.1-0.8-0.4-1.6-0.9-2.3C412.3,406.9,412.2,406.8,412,406.8L412,406.8z"/>
	<path class="st3" d="M367.5,410c-0.9,0-1.9-0.1-2.2-0.5c-0.2-0.2-0.2-0.5,0-0.8c0.1-0.2,0.3-0.4,0.6-0.4c1.2-0.3,3.8,1.1,3.9,1.2
		c0.1,0,0.1,0.1,0.1,0.2c0,0.1-0.1,0.1-0.1,0.1C369,409.9,368.3,410,367.5,410z M366.4,408.6c-0.1,0-0.2,0-0.3,0
		c-0.1,0-0.3,0.1-0.3,0.2c-0.1,0.2-0.1,0.3,0,0.4c0.3,0.5,2.2,0.5,3.6,0.3C368.4,409,367.4,408.7,366.4,408.6L366.4,408.6z"/>
	<path class="st3" d="M369.8,409.8L369.8,409.8c-1-0.4-2.7-2-2.6-2.8c0-0.2,0.2-0.4,0.6-0.5c0.4-0.1,0.7,0.1,1,0.3
		c0.9,0.8,1.1,2.7,1.1,2.8c0,0.1,0,0.1-0.1,0.2C369.8,409.8,369.8,409.8,369.8,409.8z M368,406.8h-0.1c-0.3,0-0.3,0.2-0.3,0.2
		c-0.1,0.5,1.1,1.8,2,2.3c-0.1-0.8-0.4-1.6-1-2.3C368.4,406.9,368.2,406.9,368,406.8L368,406.8z"/>
	<polygon class="st9" points="377.8,409.6 370.5,409.6 369.8,392.6 377.1,392.6 	"/>
	<polygon class="st9" points="421.9,409.6 414.6,409.6 410.9,392.6 418.2,392.6 	"/>
	<path class="st10" d="M414.1,408.8h8.2c0.3,0,0.6,0.2,0.6,0.5l1.5,6.5c0.1,0.6-0.3,1.2-0.8,1.3c-0.1,0-0.2,0-0.2,0
		c-2.9,0-4.3-0.2-7.9-0.2c-2.2,0-6.8,0.2-9.9,0.2s-3.5-3-2.2-3.3c5.7-1.2,7.8-3,9.6-4.6C413.2,409,413.6,408.8,414.1,408.8z"/>
	<path class="st10" d="M370.5,408.8h8c0.3,0,0.6,0.2,0.6,0.5l1.5,6.5c0.1,0.6-0.2,1.1-0.8,1.3c-0.1,0-0.2,0-0.2,0
		c-2.9,0-7.1-0.2-10.7-0.2c-4.2,0-7.9,0.2-12.9,0.2c-3,0-3.9-3-2.6-3.3c5.8-1.3,10.4-1.4,15.4-4.5
		C369.3,409,369.9,408.8,370.5,408.8z"/>
	<path class="st9" d="M367,170.1c-6.1-0.5-12.3-1.3-18.3-2.4c-3-0.6-6.1-1.2-9.1-2.1c-3.1-0.8-6.2-1.8-9.2-3c-0.8-0.3-1.5-0.7-2.3-1
		c-0.9-0.4-1.7-0.9-2.5-1.5c-1.4-0.9-2.7-1.9-3.9-2.9c-2.5-2-4.7-4-7-6.1c-4.5-4.1-8.7-8.4-12.8-12.9l3.7-4.1l14.5,10.4
		c2.4,1.7,4.8,3.4,7.2,5c1.2,0.8,2.4,1.5,3.5,2.2c0.5,0.3,0.9,0.5,1.4,0.7c0.6,0.2,1.2,0.5,1.8,0.7c5.4,1.7,10.9,2.9,16.5,3.7
		c5.7,0.9,11.6,1.6,17.3,2.2L367,170.1z"/>
	<path class="st3" d="M400.2,158.9c6.9,1.6,13.9,21.7,13.9,21.7l-14.2,10.2c0,0-4-9.4-7.9-17.6C388,164.6,393.2,157.3,400.2,158.9z"
		/>
	<path class="st6" d="M400.2,158.9c6.9,1.6,13.9,21.7,13.9,21.7l-14.2,10.2c0,0-4-9.4-7.9-17.6C388,164.6,393.2,157.3,400.2,158.9z"
		/>
	<path class="st3" d="M396.2,169.9l-2.8,6.3c2.9,6.3,5.6,12.5,6.3,14.2C399.6,182.9,398.2,173.7,396.2,169.9z"/>
	<path class="st12" d="M396.2,169.9l-2.8,6.3c2.9,6.3,5.6,12.5,6.3,14.2C399.6,182.9,398.2,173.7,396.2,169.9z"/>
	<path class="st3" d="M359.1,159.3c0,0-7.8,8.8-0.4,63.5h39.3c0.3-6-3.5-35.5,2.3-63.9c-4.3-0.8-8.7-1.4-13.1-1.7
		c-5.6-0.3-11.1-0.3-16.7,0C366.6,157.6,362.8,158.3,359.1,159.3z"/>
	<path class="st6" d="M359.1,159.3c0,0-7.8,8.8-0.4,63.5h39.3c0.3-6-3.5-35.5,2.3-63.9c-4.3-0.8-8.7-1.4-13.1-1.7
		c-5.6-0.3-11.1-0.3-16.7,0C366.6,157.6,362.8,158.3,359.1,159.3z"/>
	<path class="st3" d="M356.2,169.9c-0.3,2.1-0.5,4.5-0.6,7.4c3.9-1.2,7.6-2.9,10.9-5.1L356.2,169.9z"/>
	<path class="st12" d="M356.2,169.9c-0.3,2.1-0.5,4.5-0.6,7.4c3.9-1.2,7.6-2.9,10.9-5.1L356.2,169.9z"/>
	<path class="st3" d="M373,171c-5.3,4.7-25.3,4.2-25.3,4.2l-0.7-19.4c6.8,1,13.6,1.5,20.5,1.5C378.7,157,378.7,165.9,373,171z"/>
	<path class="st6" d="M373,171c-5.3,4.7-25.3,4.2-25.3,4.2l-0.7-19.4c6.8,1,13.6,1.5,20.5,1.5C378.7,157,378.7,165.9,373,171z"/>
	<path class="st9" d="M305.8,134.2l-5-5.9l-5.4,6c0,0,3.3,5.6,8.6,4.7L305.8,134.2z"/>
	<polygon class="st9" points="293.6,121.5 291.7,129.2 295.3,134.3 300.7,128.4 	"/>
	<polygon class="st13" points="369.8,392.6 370.1,401.4 377.5,401.4 377.1,392.6 	"/>
	<polygon class="st13" points="418.2,392.6 410.9,392.6 412.8,401.4 420.1,401.4 	"/>
	<path class="st10" d="M374.2,123c-6.6-3-8.7-16.3,10.3-13c0,0-2.9,3.2,2.9,5.2S388.4,129.5,374.2,123z"/>
	<path class="st9" d="M388.5,133c-1.9,7-2.6,11.3-7,14.2c-6.5,4.4-14.7-0.6-14.9-8.1c-0.2-6.7,2.9-17.1,10.5-18.5
		c5.4-1.1,10.6,2.5,11.7,7.8C389,129.9,388.9,131.5,388.5,133z"/>
	<path class="st10" d="M384.2,113.5c4.5,2.5,10.6,4,10,7.6c-0.8,4.3,3.7,1.6,2.6,8.1c-0.7,4.2-8.5,17.1-14,16.4
		c-8.3-1-7.2-13.6-7.2-20.2C375.6,121.5,375.4,108.6,384.2,113.5z"/>
	<path class="st10" d="M374.6,119.1c-2,0.5-4.6,12,3.1,13.1C386.6,133.4,374.6,119.1,374.6,119.1z"/>
	<path class="st10" d="M374.8,123.2c-2.5,0.2-8-2.7-7.3-7.2C367.5,116,371,121.2,374.8,123.2z"/>
	<path class="st9" d="M378.5,133.1c-0.8,1.6-2,3-3.6,3.9c-2.1,1.1-3.3-0.5-2.8-2.6c0.4-1.9,2-4.8,4.2-5S379.3,131.1,378.5,133.1z"/>
	<path class="st10" d="M389.5,125c3-1.3,5.2-4.1,5.8-7.3C395.2,117.7,398.5,126.8,389.5,125z"/>
	<path class="st10" d="M397.8,124.8c-1.4-0.9-3.2-1.1-4.8-0.5C393,124.4,396.1,120.4,397.8,124.8z"/>
	<path class="st3" d="M372.6,222.8c0,0,8.3,56.1,12.9,77.2c5,23,23.9,99.8,23.9,99.8h13.5c0,0-12.5-74.9-15.3-97.7
		c-3.1-24.8-9.6-79.3-9.6-79.3L372.6,222.8z"/>
	<path class="st8" d="M372.6,222.8c0,0,8.3,56.1,12.9,77.2c5,23,23.9,99.8,23.9,99.8h13.5c0,0-12.5-74.9-15.3-97.7
		c-3.1-24.8-9.6-79.3-9.6-79.3L372.6,222.8z"/>
	<path class="st3" d="M407.2,394.8c-0.1,0,1.4,5.2,1.4,5.2h15.1l-0.3-4.6L407.2,394.8z"/>
	<path class="st14" d="M407.2,394.8c-0.1,0,1.4,5.2,1.4,5.2h15.1l-0.3-4.6L407.2,394.8z"/>
	<path class="st3" d="M377.8,242.8c9.6,1.9,8.6,37.8,7.5,56.3c-2.8-13.1-6.9-38.2-9.6-56.1C376.3,242.7,377.1,242.6,377.8,242.8z"/>
	<path class="st15" d="M377.8,242.8c9.6,1.9,8.6,37.8,7.5,56.3c-2.8-13.1-6.9-38.2-9.6-56.1C376.3,242.7,377.1,242.6,377.8,242.8z"
		/>
	<path class="st3" d="M358.6,222.8c0,0-1,54.9-0.2,77.3c0.8,23.3,9,99.6,9,99.6h12.4c0,0,0.5-74.9,1-97.8c0.6-25,3.6-79.1,3.6-79.1
		L358.6,222.8z"/>
	<path class="st8" d="M358.6,222.8c0,0-1,54.9-0.2,77.3c0.8,23.3,9,99.6,9,99.6h12.4c0,0,0.5-74.9,1-97.8c0.6-25,3.6-79.1,3.6-79.1
		L358.6,222.8z"/>
	<path class="st3" d="M370,390.8c-0.1,0-0.1,0-0.1-0.1c-2.2-21.1-7.4-72.2-8-90.6c-0.7-18.7-0.1-60.7,0.1-73.1
		c0-0.1,0.1-0.1,0.1-0.1l0,0c0.1,0,0.1,0.1,0.1,0.1c-0.2,12.4-0.8,54.4-0.1,73.1c0.6,18.3,5.8,69.4,8,90.5
		C370.1,390.7,370.1,390.8,370,390.8L370,390.8z"/>
	<path class="st15" d="M370,390.8c-0.1,0-0.1,0-0.1-0.1c-2.2-21.1-7.4-72.2-8-90.6c-0.7-18.7-0.1-60.7,0.1-73.1
		c0-0.1,0.1-0.1,0.1-0.1l0,0c0.1,0,0.1,0.1,0.1,0.1c-0.2,12.4-0.8,54.4-0.1,73.1c0.6,18.3,5.8,69.4,8,90.5
		C370.1,390.7,370.1,390.8,370,390.8L370,390.8z"/>
	<path class="st3" d="M365,394.8c0,0,0.7,5.2,0.7,5.2h15.1l0.4-4.6L365,394.8z"/>
	<path class="st14" d="M365,394.8c0,0,0.7,5.2,0.7,5.2h15.1l0.4-4.6L365,394.8z"/>
</g>
</svg>
